<!DOCTYPE svg PUBLIC "-//W3C//DTD SVG 20010904//EN" "http://www.w3.org/TR/2001/REC-SVG-20010904/DTD/svg10.dtd">
<svg version="1.0" xmlns="http://www.w3.org/2000/svg" width="667px" height="120px" viewBox="0 0 6670 1200" preserveAspectRatio="xMidYMid meet">
<g id="layer101" fill="#020202" stroke="none">
<path d="M0 600 l0 -600 3335 0 3335 0 0 600 0 600 -3335 0 -3335 0 0 -600z"/>
</g>
<g id="layer102" fill="#373737" stroke="none">
<path d="M2025 821 c-44 -21 -134 -72 -200 -113 -127 -79 -178 -108 -193 -108 -6 0 -11 51 -13 114 -2 63 -7 118 -11 121 -4 4 -19 5 -33 1 l-25 -6 0 -240 0 -240 29 0 c36 0 41 15 41 138 0 50 2 92 5 92 13 0 152 -74 215 -115 79 -50 176 -101 233 -121 34 -12 38 -12 27 1 -12 14 -211 160 -287 210 -24 15 -43 31 -43 35 0 3 37 32 83 63 121 82 262 187 265 198 6 15 -8 10 -93 -30z"/>
<path d="M2170 851 c0 -31 184 -364 262 -473 23 -33 76 -39 100 -10 54 63 286 477 274 489 -3 3 -36 -23 -73 -60 l-67 -66 -75 -7 c-42 -4 -123 -4 -181 0 l-105 6 -67 67 c-38 37 -68 61 -68 54z m473 -178 c7 -12 -146 -264 -158 -260 -13 4 -155 237 -155 254 0 10 36 13 154 13 85 0 157 -3 159 -7z"/>
<path d="M3726 851 c-4 -6 -2 -16 3 -23 6 -7 36 -62 67 -123 80 -155 174 -303 209 -330 65 -49 64 -50 161 107 103 168 209 367 200 375 -3 3 -36 -24 -73 -60 l-67 -66 -85 -7 c-47 -4 -128 -4 -180 -1 l-94 6 -67 66 c-41 40 -70 63 -74 56z m477 -178 c6 -11 -145 -263 -158 -263 -12 0 -18 9 -101 152 -34 58 -60 109 -57 112 9 9 311 7 316 -1z"/>
<path d="M5000 851 c0 -5 -16 -12 -34 -15 -19 -4 -95 -43 -168 -88 -179 -109 -256 -151 -268 -143 -6 3 -10 51 -10 108 0 56 -4 108 -9 115 -4 8 -19 12 -32 10 l-24 -3 1 -215 c0 -168 4 -224 15 -254 16 -42 42 -62 38 -30 -4 31 13 221 21 234 9 15 52 -6 200 -98 102 -63 254 -142 272 -142 17 0 2 24 -24 40 -14 8 -54 37 -89 63 -35 26 -99 71 -141 100 -43 29 -77 54 -77 57 -1 3 23 20 52 39 81 52 297 215 297 224 0 4 -4 7 -10 7 -5 0 -10 -4 -10 -9z"/>
<path d="M5394 710 c-98 -10 -123 -25 -58 -34 27 -4 60 -10 74 -13 22 -6 23 -7 5 -14 -11 -4 -43 -8 -72 -8 l-51 -1 -7 -67 c-3 -38 -8 -86 -11 -108 l-5 -40 40 45 41 45 36 -39 37 -39 33 39 34 39 34 -37 c18 -21 36 -38 40 -38 4 0 5 19 2 43 -3 23 -8 68 -11 99 l-6 56 -42 8 -42 7 31 9 c41 11 62 34 37 41 -43 12 -72 13 -139 7z"/>
<path d="M950 703 c0 -6 8 -14 18 -18 28 -11 312 -15 312 -5 0 6 -3 11 -7 12 -65 13 -323 22 -323 11z"/>
</g>
<g id="layer103" fill="#f98d00" stroke="none">
<path d="M2038 826 c-43 -19 -135 -70 -205 -113 -135 -85 -186 -113 -201 -113 -6 0 -11 51 -13 114 -2 63 -7 118 -11 121 -4 4 -19 5 -33 1 l-25 -6 0 -240 0 -240 29 0 c36 0 41 15 41 138 0 50 2 92 5 92 13 0 152 -75 218 -117 89 -57 232 -126 249 -121 13 5 -37 43 -212 166 -58 41 -105 77 -105 82 0 5 57 48 128 98 70 49 140 100 155 114 15 13 35 27 45 31 9 3 17 11 17 17 0 13 7 15 -82 -24z"/>
<path d="M2170 851 c0 -31 184 -364 262 -473 23 -33 76 -39 100 -10 53 61 286 477 275 489 -3 3 -36 -24 -74 -60 l-67 -66 -75 -7 c-42 -4 -123 -4 -181 0 l-105 6 -67 67 c-38 37 -68 61 -68 54z m473 -178 c7 -12 -146 -264 -158 -260 -13 4 -155 237 -155 254 0 10 36 13 154 13 85 0 157 -3 159 -7z"/>
<path d="M3728 854 c-9 -8 107 -231 185 -356 60 -97 99 -139 144 -152 19 -6 31 10 109 136 100 163 209 366 201 374 -3 3 -36 -23 -74 -59 l-68 -66 -84 -7 c-47 -4 -128 -4 -180 -1 l-94 6 -67 66 c-36 36 -69 63 -72 59z m475 -181 c6 -11 -145 -263 -158 -263 -12 0 -18 9 -101 152 -34 58 -60 109 -57 112 9 9 311 7 316 -1z"/>
<path d="M5000 851 c0 -5 -16 -12 -34 -15 -19 -4 -95 -43 -168 -88 -179 -109 -256 -151 -268 -143 -6 3 -10 51 -10 108 0 56 -4 108 -9 115 -4 8 -19 12 -32 10 l-24 -3 1 -215 c0 -168 4 -224 15 -254 17 -42 36 -58 35 -29 -1 42 17 222 24 233 9 15 52 -6 200 -98 130 -80 258 -143 265 -131 8 12 -3 29 -19 29 -7 0 -20 8 -30 18 -9 11 -74 59 -146 108 -71 49 -129 91 -129 94 0 3 23 20 52 39 81 52 297 215 297 224 0 4 -4 7 -10 7 -5 0 -10 -4 -10 -9z"/>
<path d="M2907 833 c-12 -20 -18 -206 -12 -338 l7 -146 27 3 26 3 0 240 c0 238 0 240 -22 243 -11 2 -23 0 -26 -5z"/>
<path d="M3586 809 c-3 -17 -6 -58 -6 -90 0 -32 -3 -60 -8 -63 -4 -2 -100 -7 -214 -11 l-206 -8 -7 97 -7 96 -29 0 -29 0 0 -241 0 -241 233 5 c254 6 308 14 326 53 16 35 14 101 -5 163 -14 47 -14 61 2 152 9 55 14 102 11 105 -2 3 -16 7 -30 9 -21 4 -25 0 -31 -26z m-40 -225 c31 -4 32 -6 44 -80 6 -42 9 -79 5 -82 -9 -9 -173 -20 -327 -21 l-128 -1 0 95 0 94 93 4 c99 3 263 -1 313 -9z"/>
<path d="M5391 709 c-92 -9 -112 -25 -45 -35 87 -13 173 -9 191 9 15 15 14 16 -13 22 -52 12 -58 12 -133 4z"/>
<path d="M950 700 c0 -7 3 -10 7 -7 3 4 3 10 0 14 -4 3 -7 0 -7 -7z"/>
<path d="M970 699 c0 -5 3 -9 8 -10 4 0 16 -3 27 -5 46 -10 275 -13 275 -3 0 6 -4 7 -10 4 -5 -3 -10 -3 -10 2 0 10 -11 11 -167 17 -73 3 -123 1 -123 -5z"/>
<path d="M987 633 c-2 -4 -7 -51 -11 -103 l-6 -95 38 42 39 42 33 -41 33 -41 34 36 c18 21 36 37 39 37 4 0 23 -19 44 -42 l38 -43 -5 50 c-3 28 -8 75 -12 105 l-6 55 -127 3 c-69 1 -128 -1 -131 -5z"/>
<path d="M5285 573 c-3 -38 -8 -86 -11 -108 l-5 -40 40 45 41 45 36 -39 37 -39 33 39 34 39 34 -37 c18 -21 36 -38 40 -38 4 0 5 19 2 43 -3 23 -8 68 -11 100 l-6 57 -129 0 -128 0 -7 -67z"/>
</g>
<g id="layer104" fill="#ffffff" stroke="none">
<path d="M3264 1159 c-22 -17 -59 -43 -84 -57 l-45 -27 -1563 4 -1562 4 0 -42 0 -41 3325 0 3325 0 0 41 0 42 -1605 -5 -1604 -5 -71 59 c-40 32 -73 58 -75 58 -1 0 -20 -14 -41 -31z"/>
<path d="M34 166 c-3 -8 -4 -25 -2 -38 l3 -23 1570 -5 1571 -5 52 -38 c29 -20 58 -37 65 -37 8 0 39 18 70 40 l55 40 1616 0 1616 0 0 40 0 40 -3305 0 c-2854 0 -3306 -2 -3311 -14z"/>
</g>


</svg>